<svg width="24" height="24" viewBox="0 0 24 24" fill="none" xmlns="http://www.w3.org/2000/svg">
<g clip-path="url(#clip0_13_2509)">
<path d="M12 24C18.6165 24 24 18.6169 24 12C24 10.8579 23.8406 9.73242 23.5249 8.65454C23.3694 8.12451 22.8159 7.82007 22.2844 7.97559C21.7539 8.13062 21.4504 8.68604 21.6055 9.21606C21.8669 10.1116 22 11.0486 22 12C22 17.5139 17.5139 22 12 22C6.48608 22 2 17.5139 2 12C2 6.48608 6.48608 2 12 2C14.0039 2 15.9319 2.58594 17.5754 3.69409C18.033 4.00293 18.655 3.88159 18.9634 3.42407C19.272 2.96606 19.1516 2.34448 18.6936 2.03589C16.7185 0.704102 14.4041 0 12 0C5.38354 0 0 5.38306 0 12C0 18.6169 5.38354 24 12 24Z" fill="#00C4D9"/>
<path d="M22.293 2.29327L12.0001 12.5858L8.70709 9.29327C8.31647 8.90289 7.68365 8.90289 7.29303 9.29327C6.90265 9.6839 6.90265 10.3167 7.29303 10.7073L11.293 14.7073C11.4886 14.9029 11.744 15.0003 12.0001 15.0003C12.2562 15.0003 12.5115 14.9029 12.7071 14.7073L23.7071 3.70734C24.0975 3.31671 24.0975 2.6839 23.7071 2.29327C23.3165 1.90289 22.6837 1.90289 22.293 2.29327Z" fill="#00C4D9"/>
</g>
<defs>
<clipPath id="clip0_13_2509">
<rect width="24" height="24" fill="white"/>
</clipPath>
</defs>
</svg>
