<svg  width="40" height="40" viewBox="0 0 40 40" fill="none" xmlns="http://www.w3.org/2000/svg">
<g clip-path="url(#clip0_625_1216)">
<path d="M8.89096 19.5653C8.68659 19.5653 8.48237 19.6462 8.32909 19.8071C8.02925 20.1217 8.03768 20.6233 8.348 20.9273C9.36963 21.9286 11.0319 21.9286 12.0535 20.9273C12.3638 20.6233 12.3723 20.1217 12.0724 19.8071C11.7726 19.4924 11.278 19.4839 10.9678 19.788C10.5448 20.2024 9.85674 20.2024 9.43378 19.788C9.28221 19.6393 9.08651 19.5653 8.89096 19.5653Z" fill="white"/>
<path d="M39.977 23.8748C40.0752 23.4728 39.8515 23.0619 39.4637 22.932C37.613 22.312 35.407 20.9142 35.407 17.7756V16.1137C35.407 13.5508 34.828 11.5451 33.6862 10.1525C32.5812 8.80469 30.9748 8.09229 29.0407 8.09229C27.1877 8.09229 25.6109 8.80192 24.4806 10.1446C23.2991 11.5481 22.6745 13.6122 22.6745 16.1137V17.7756C22.6745 19.5138 22.0012 20.895 20.6724 21.8858C20.3555 21.8216 20.0281 21.7873 19.6929 21.7873C17.5562 21.7873 15.728 23.1539 15.0148 25.0704C14.8062 25.011 13.7132 24.7123 13.3905 24.6165V24.0894C15.478 22.9381 16.898 20.6936 16.898 18.1192V14.9728C16.898 11.2271 13.8941 8.17975 10.2017 8.17975C6.5082 8.17975 3.50328 11.2271 3.50328 14.9728V18.1192C3.50328 20.6932 4.92328 22.9373 7.01086 24.0887V24.6164C6.6882 24.7122 6.35305 24.8041 6.00617 24.8992C3.36016 25.6226 0.0664062 26.5226 0 30.6179V37.5613C0 37.9986 0.35 38.3535 0.78125 38.3535H11.3452V39.48C11.3452 39.4819 11.3449 39.4838 11.3449 39.4858C11.3449 39.9234 11.6947 40.2781 12.1262 40.2781H16.1809C16.6124 40.2781 16.9622 39.9234 16.9622 39.4858C16.9622 39.0483 16.6124 38.6936 16.1809 38.6936H12.9077V38.2189C12.917 37.639 12.9928 37.1636 13.1287 36.7691C13.6202 35.3414 14.892 34.9611 16.6241 34.443C16.7053 34.4187 16.7875 34.3942 16.87 34.3693C17.2813 35.512 18.3638 36.3299 19.6311 36.3299C21.0037 36.3299 22.1102 35.5366 22.5198 34.3711C22.6004 34.3953 22.6805 34.4193 22.76 34.4429C24.9709 35.1044 26.4319 35.541 26.4764 38.2188V38.6935H23.1966C22.7651 38.6935 22.4153 39.0482 22.4153 39.4857C22.4153 39.9233 22.7651 40.278 23.1966 40.278H27.258C27.6895 40.278 28.0392 39.9233 28.0392 39.4857C28.0392 39.4838 28.0389 39.4818 28.0389 39.4798V38.3534H38.4612C38.8927 38.3534 39.2424 37.9987 39.2424 37.5611V30.6305C39.2424 30.6262 39.2424 30.6218 39.2423 30.6175C39.2154 28.9582 38.6587 27.8236 37.8299 27.0127C38.9546 26.4781 39.5741 25.5234 39.977 23.8748ZM29.0407 9.67673C30.5162 9.67673 31.6749 10.1776 32.4848 11.1654C33.2973 12.1566 33.7479 13.607 33.8296 15.48C32.3827 15.7345 30.6795 15.5289 29.7378 13.6406C29.4545 13.0735 28.6266 13.0728 28.3434 13.6406C27.4022 15.5282 25.6999 15.7343 24.2533 15.4803C24.4341 11.8329 26.1941 9.67673 29.0407 9.67673ZM24.237 17.0806C24.5694 17.1276 24.8929 17.1513 25.2063 17.1513C26.7815 17.1513 28.103 16.5618 29.0407 15.4339C29.9784 16.5619 31.2998 17.1513 32.8752 17.1513C33.1885 17.1513 33.512 17.1276 33.8445 17.0806V17.7757C33.8445 20.4619 31.6896 22.6473 29.0408 22.6473C26.392 22.6473 24.237 20.4619 24.237 17.7757V17.0806H24.237ZM30.6688 24.0167V25.2002C30.6688 26.1094 29.9384 26.8491 29.0407 26.8491C28.1441 26.8491 27.4148 26.1094 27.4148 25.2002V24.0173C27.934 24.1567 28.4788 24.2318 29.0407 24.2318C29.6034 24.2317 30.1489 24.1565 30.6688 24.0167ZM23.5018 20.9523C24.0607 21.9506 24.8745 22.7836 25.8523 23.3604V24.6164C25.5274 24.713 25.1907 24.805 24.8416 24.9004C24.6809 24.9443 24.5178 24.9891 24.3541 25.0347C23.9576 23.9979 23.2366 23.1249 22.3176 22.5463C22.8021 22.0704 23.1983 21.5373 23.5018 20.9523ZM16.5085 25.5466C17.0202 24.2726 18.2546 23.3718 19.6929 23.3718C21.3638 23.3718 22.7587 24.5909 23.0665 26.2013C22.0252 25.6959 20.8668 25.4258 19.6923 25.4258C18.5174 25.4258 17.3588 25.6962 16.3177 26.2019C16.3605 25.975 16.4246 25.7556 16.5085 25.5466ZM5.06586 14.9728C5.06586 12.1008 7.36984 9.76428 10.2018 9.76428C13.0326 9.76428 15.3355 12.1008 15.3355 14.9728V15.7925C13.2818 15.8621 10.6936 15.6145 8.78516 14.2898C8.44164 14.0515 7.97422 14.128 7.72219 14.4638C7.06156 15.344 6.23195 15.5624 5.06594 15.7029V14.9728H5.06586ZM5.06586 18.1192V17.2977C6.32242 17.1552 7.50594 16.9225 8.48859 15.9677C10.6264 17.1952 13.2379 17.4428 15.3355 17.3779V18.1192C15.3355 20.9899 13.0325 23.3255 10.2017 23.3255C7.36984 23.3255 5.06586 20.9899 5.06586 18.1192ZM11.828 24.7064V25.1931C11.828 25.1954 11.8277 25.1977 11.8277 25.2001C11.8277 26.1093 11.0983 26.8491 10.2017 26.8491C9.30398 26.8491 8.57359 26.1093 8.57359 25.2001C8.57359 25.1985 8.57336 25.1968 8.57336 25.1951V24.706C9.09492 24.8385 9.64023 24.9099 10.2017 24.9099C10.7626 24.91 11.3072 24.8388 11.828 24.7064ZM16.6929 32.7688C16.5218 32.8219 16.3507 32.8733 16.182 32.9233C14.2538 33.5 12.1038 34.1426 11.5062 36.7689H5.74352V33.5635C5.74352 33.1259 5.39375 32.7712 4.96227 32.7712C4.53078 32.7712 4.18102 33.1259 4.18102 33.5635V36.7689H1.5625V30.6376C1.60938 27.936 3.42656 27.2451 6.4125 26.4291C6.66398 26.3601 6.91953 26.29 7.17375 26.2171C7.59539 27.5031 8.79305 28.4336 10.2018 28.4336C11.6096 28.4336 12.8064 27.5031 13.2277 26.2171C13.4821 26.2899 14.471 26.5622 14.6991 26.6279C14.6952 26.704 14.6937 26.7808 14.6937 26.8577V27.9779C14.6937 29.633 15.4796 31.1058 16.6929 32.0312V32.7688ZM21.1288 33.3474C21.1288 33.3483 21.1287 33.3492 21.1287 33.3501C21.1287 34.3087 20.3524 34.7453 19.6312 34.7453C18.8727 34.7453 18.2555 34.1194 18.2555 33.3501C18.2555 33.3494 18.2554 33.3487 18.2554 33.3479V32.8345C18.4452 32.8924 18.6398 32.9399 18.839 32.974C19.1163 33.0231 19.4015 33.0484 19.6929 33.0484C19.9335 33.0484 20.1702 33.031 20.4015 32.9969C20.6499 32.9621 20.8929 32.9074 21.1288 32.8353V33.3474ZM21.5445 30.9141C20.4944 31.624 18.9181 31.6595 17.8687 30.9307C16.9209 30.3264 16.2848 29.2659 16.2587 28.055C18.3044 26.6728 21.0805 26.6729 23.1279 28.0553C23.1019 29.2543 22.4775 30.3069 21.5445 30.9141ZM37.68 36.7688H35.0615V33.5635C35.0615 33.1259 34.7117 32.7712 34.2802 32.7712C33.8487 32.7712 33.499 33.1259 33.499 33.5635V36.7688H27.8779C27.2797 34.1426 25.1301 33.4999 23.2023 32.9233C23.0335 32.8733 22.8624 32.8219 22.6913 32.7688V32.0335C23.9062 31.1074 24.6929 29.6338 24.6929 27.9779V26.8712C24.6929 26.7754 24.6898 26.6803 24.6845 26.5857C24.8732 26.5329 25.0621 26.4811 25.248 26.4303C25.5013 26.3611 25.7586 26.2906 26.0148 26.2173C26.4362 27.5032 27.6329 28.4337 29.0406 28.4337C30.4493 28.4337 31.6469 27.5033 32.0686 26.2174C32.3228 26.2901 32.5783 26.3602 32.8298 26.429C35.8159 27.2452 37.6332 27.9361 37.6799 30.6373V36.7688H37.68ZM36.1411 25.8785C35.2079 25.438 34.181 25.1572 33.2365 24.899C32.8892 24.8041 32.5541 24.7125 32.2313 24.6165V23.3591C33.2059 22.7836 34.0173 21.9537 34.5757 20.9591C35.4637 22.6661 37.0002 23.6349 38.2677 24.1699C37.8937 25.273 37.3669 25.6689 36.1411 25.8785Z" fill="white"/>
<path d="M19.5115 10.3236C19.6629 10.4718 19.8585 10.5458 20.0541 10.5458C20.2497 10.5458 20.4453 10.4718 20.5967 10.3236L24.7309 6.27696C26.0972 4.94081 26.137 2.72659 24.8191 1.34052C24.1826 0.672408 23.3246 0.29529 22.4033 0.278653C21.5271 0.262807 20.6992 0.574088 20.0541 1.15775C19.4087 0.574009 18.5807 0.263045 17.705 0.278653C16.7837 0.29529 15.9258 0.672487 15.288 1.34171C13.9725 2.72833 14.0125 4.94232 15.3771 6.27673L19.5115 10.3236ZM16.4128 2.44161C16.7597 2.07757 17.2284 1.87205 17.7329 1.86294C17.7445 1.86278 17.7561 1.86263 17.7679 1.86263C18.259 1.86263 18.7204 2.05039 19.071 2.39384L19.5117 2.82507C19.8143 3.12122 20.294 3.12122 20.5966 2.82507L21.0378 2.39344C21.3961 2.04223 21.8701 1.85391 22.3754 1.86294C22.8799 1.87205 23.3486 2.07757 23.695 2.44106C24.4144 3.19759 24.3926 4.40674 23.6461 5.13666L20.0542 8.65249L16.462 5.13642C15.7165 4.40746 15.695 3.19807 16.4128 2.44161Z" fill="white"/>
<path d="M19.6887 38.6935C19.2572 38.6935 18.9075 39.0482 18.9075 39.4857C18.9075 39.9233 19.2572 40.278 19.6887 40.278H19.6932C20.1247 40.278 20.4722 39.9233 20.4722 39.4857C20.4722 39.0482 20.1202 38.6935 19.6887 38.6935Z" fill="white"/>
</g>
<defs>
<clipPath id="clip0_625_1216">
<rect width="40" height="40" fill="white"/>
</clipPath>
</defs>
</svg>
