<svg width="40" height="40" viewBox="0 0 40 40" fill="none" xmlns="http://www.w3.org/2000/svg">
<path d="M11.8559 2.51611C11.4822 2.51611 11.1792 2.81908 11.1792 3.19275V4.7015H10.074V3.19275C10.074 2.81908 9.77102 2.51611 9.39734 2.51611C9.02367 2.51611 8.7207 2.81908 8.7207 3.19275V7.56338C8.7207 7.93705 9.02367 8.24002 9.39734 8.24002C9.77102 8.24002 10.074 7.93705 10.074 7.56338V6.05478H11.1792V7.56338C11.1792 7.93705 11.4822 8.24002 11.8559 8.24002C12.2295 8.24002 12.5325 7.93705 12.5325 7.56338V3.19275C12.5325 2.81908 12.2295 2.51611 11.8559 2.51611Z" fill="white"/>
<path d="M15.7337 2.51611C14.6829 2.51611 13.8279 3.37111 13.8279 4.42205V6.33408C13.8279 7.38494 14.6829 8.23994 15.7337 8.23994C16.7847 8.23994 17.6397 7.38494 17.6397 6.33408V4.42205C17.6397 3.37111 16.7847 2.51611 15.7337 2.51611ZM16.2865 6.33408C16.2865 6.63877 16.0386 6.88666 15.7338 6.88666C15.4291 6.88666 15.1812 6.63877 15.1812 6.33408V4.42205C15.1812 4.11729 15.4291 3.86939 15.7338 3.86939C16.0386 3.86939 16.2865 4.11729 16.2865 4.42205V6.33408Z" fill="white"/>
<path d="M26.4425 6.88674H24.6607V6.07346H25.6603C26.034 6.07346 26.337 5.77049 26.337 5.39682C26.337 5.02314 26.034 4.72018 25.6603 4.72018H24.6607V3.86939H26.4425C26.8162 3.86939 27.1192 3.56643 27.1192 3.19275C27.1192 2.81908 26.8162 2.51611 26.4425 2.51611H23.984C23.6103 2.51611 23.3074 2.81908 23.3074 3.19275V7.56338C23.3074 7.93705 23.6103 8.24002 23.984 8.24002H26.4425C26.8162 8.24002 27.1192 7.93705 27.1192 7.56338C27.1192 7.18971 26.8162 6.88674 26.4425 6.88674Z" fill="white"/>
<path d="M31.5048 6.88674H29.7229V3.19275C29.7229 2.81908 29.4199 2.51611 29.0463 2.51611C28.6726 2.51611 28.3696 2.81908 28.3696 3.19275V7.56338C28.3696 7.93705 28.6726 8.24002 29.0463 8.24002H31.5048C31.8785 8.24002 32.1814 7.93705 32.1814 7.56338C32.1814 7.18971 31.8785 6.88674 31.5048 6.88674Z" fill="white"/>
<path d="M21.4894 2.51611H19.0309C18.6572 2.51611 18.3542 2.81908 18.3542 3.19275C18.3542 3.56643 18.6572 3.86939 19.0309 3.86939H19.5835V7.56338C19.5835 7.93705 19.8864 8.24002 20.2601 8.24002C20.6338 8.24002 20.9367 7.93705 20.9367 7.56338V3.86939H21.4894C21.8631 3.86939 22.166 3.56643 22.166 3.19275C22.166 2.81908 21.8631 2.51611 21.4894 2.51611Z" fill="white"/>
<path d="M37.8448 18.2893C37.4711 18.2893 37.1681 18.5922 37.1681 18.9659V38.6467H30.8776V34.6912C30.8776 33.1415 29.6168 31.8807 28.0671 31.8807C26.5173 31.8807 25.2566 33.1415 25.2566 34.6912V38.6467H22.8105V34.6912C22.8105 33.1415 21.5497 31.8807 20 31.8807C18.4503 31.8807 17.1895 33.1415 17.1895 34.6912V38.6467H14.7434V34.6912C14.7434 33.1415 13.4827 31.8807 11.9329 31.8807C10.3832 31.8807 9.12242 33.1415 9.12242 34.6912V38.6467H2.8318V34.8444C2.8318 34.4707 2.52883 34.1677 2.15516 34.1677C1.78148 34.1677 1.47852 34.4707 1.47852 34.8444V39.3233C1.47852 39.697 1.78148 40 2.15516 40H37.8448C38.2185 40 38.5215 39.697 38.5215 39.3233V18.9659C38.5214 18.5922 38.2184 18.2893 37.8448 18.2893ZM13.39 38.6467H10.4755V34.6912C10.4755 33.8876 11.1292 33.234 11.9327 33.234C12.7363 33.234 13.3899 33.8877 13.3899 34.6912V38.6467H13.39ZM21.4572 38.6467H18.5427V34.6912C18.5427 33.8876 19.1964 33.234 19.9999 33.234C20.8034 33.234 21.4571 33.8877 21.4571 34.6912V38.6467H21.4572ZM29.5243 38.6467H26.6098V34.6912C26.6098 33.8876 27.2635 33.234 28.067 33.234C28.8706 33.234 29.5242 33.8877 29.5242 34.6912V38.6467H29.5243Z" fill="white"/>
<path d="M6.67098 26.2423C5.62637 26.2423 4.77637 27.0922 4.77637 28.137V30.708C4.77637 31.0817 5.07934 31.3847 5.45301 31.3847H7.88879C8.26246 31.3847 8.56543 31.0817 8.56543 30.708V28.137C8.56551 27.0923 7.71558 26.2423 6.67098 26.2423ZM7.21223 30.0314H6.12965V28.1369C6.12965 27.8384 6.37246 27.5955 6.67098 27.5955C6.96949 27.5955 7.21223 27.8384 7.21223 28.1369V30.0314Z" fill="white"/>
<path d="M17.3342 26.2423C16.2895 26.2423 15.4397 27.0922 15.4397 28.137V30.708C15.4397 31.0817 15.7427 31.3847 16.1163 31.3847H18.5521C18.9258 31.3847 19.2288 31.0817 19.2288 30.708V28.137C19.2288 27.0923 18.3789 26.2423 17.3342 26.2423ZM17.8755 30.0314H16.793V28.1369C16.793 27.8384 17.0358 27.5955 17.3342 27.5955C17.6327 27.5955 17.8756 27.8384 17.8756 28.1369V30.0314H17.8755Z" fill="white"/>
<path d="M12.0024 26.2423C10.9578 26.2423 10.1079 27.0922 10.1079 28.137V30.708C10.1079 31.0817 10.4109 31.3847 10.7846 31.3847H13.2203C13.594 31.3847 13.897 31.0817 13.897 30.708V28.137C13.897 27.0923 13.0471 26.2423 12.0024 26.2423ZM12.5437 30.0314H11.4612V28.1369C11.4612 27.8384 11.704 27.5955 12.0024 27.5955C12.3009 27.5955 12.5438 27.8384 12.5438 28.1369V30.0314H12.5437Z" fill="white"/>
<path d="M22.6659 26.2423C21.6212 26.2423 20.7712 27.0922 20.7712 28.137V30.708C20.7712 31.0817 21.0742 31.3847 21.4479 31.3847H23.8837C24.2573 31.3847 24.5603 31.0817 24.5603 30.708V28.137C24.5603 27.0923 23.7105 26.2423 22.6659 26.2423ZM23.207 30.0314H22.1245V28.1369C22.1245 27.8384 22.3673 27.5955 22.6659 27.5955C22.9644 27.5955 23.2071 27.8384 23.2071 28.1369V30.0314H23.207Z" fill="white"/>
<path d="M33.3291 26.2423C32.2844 26.2423 31.4346 27.0922 31.4346 28.137V30.708C31.4346 31.0817 31.7375 31.3847 32.1112 31.3847H34.547C34.9207 31.3847 35.2236 31.0817 35.2236 30.708V28.137C35.2237 27.0923 34.3739 26.2423 33.3291 26.2423ZM33.8704 30.0314H32.7879V28.1369C32.7879 27.8384 33.0307 27.5955 33.3292 27.5955C33.6276 27.5955 33.8705 27.8384 33.8705 28.1369V30.0314H33.8704Z" fill="white"/>
<path d="M27.9976 26.2423C26.953 26.2423 26.103 27.0922 26.103 28.137V30.708C26.103 31.0817 26.406 31.3847 26.7797 31.3847H29.2154C29.5891 31.3847 29.8921 31.0817 29.8921 30.708V28.137C29.8922 27.0923 29.0423 26.2423 27.9976 26.2423ZM28.5389 30.0314H27.4564V28.1369C27.4564 27.8384 27.6992 27.5955 27.9977 27.5955C28.2962 27.5955 28.539 27.8384 28.539 28.1369V30.0314H28.5389Z" fill="white"/>
<path d="M6.67098 19.6793C5.62637 19.6793 4.77637 20.5291 4.77637 21.5738V24.1449C4.77637 24.5186 5.07934 24.8216 5.45301 24.8216H7.88879C8.26246 24.8216 8.56543 24.5186 8.56543 24.1449V21.5738C8.56551 20.5291 7.71558 19.6793 6.67098 19.6793ZM7.21223 23.4683H6.12965V21.5737C6.12965 21.2753 6.37246 21.0325 6.67098 21.0325C6.96949 21.0325 7.21223 21.2753 7.21223 21.5737V23.4683Z" fill="white"/>
<path d="M17.3342 19.6793C16.2895 19.6793 15.4397 20.5291 15.4397 21.5738V24.1449C15.4397 24.5186 15.7427 24.8216 16.1163 24.8216H18.5521C18.9258 24.8216 19.2288 24.5186 19.2288 24.1449V21.5738C19.2288 20.5291 18.3789 19.6793 17.3342 19.6793ZM17.8755 23.4683H16.793V21.5737C16.793 21.2753 17.0358 21.0325 17.3342 21.0325C17.6327 21.0325 17.8756 21.2753 17.8756 21.5737V23.4683H17.8755Z" fill="white"/>
<path d="M12.0024 19.6793C10.9578 19.6793 10.1079 20.5291 10.1079 21.5738V24.1449C10.1079 24.5186 10.4109 24.8216 10.7846 24.8216H13.2203C13.594 24.8216 13.897 24.5186 13.897 24.1449V21.5738C13.897 20.5291 13.0471 19.6793 12.0024 19.6793ZM12.5437 23.4683H11.4612V21.5737C11.4612 21.2753 11.704 21.0325 12.0024 21.0325C12.3009 21.0325 12.5438 21.2753 12.5438 21.5737V23.4683H12.5437Z" fill="white"/>
<path d="M22.6659 19.6793C21.6212 19.6793 20.7712 20.5291 20.7712 21.5738V24.1449C20.7712 24.5186 21.0742 24.8216 21.4479 24.8216H23.8837C24.2573 24.8216 24.5603 24.5186 24.5603 24.1449V21.5738C24.5603 20.5291 23.7105 19.6793 22.6659 19.6793ZM23.207 23.4683H22.1245V21.5737C22.1245 21.2753 22.3673 21.0325 22.6659 21.0325C22.9644 21.0325 23.2071 21.2753 23.2071 21.5737V23.4683H23.207Z" fill="white"/>
<path d="M33.3291 19.6793C32.2844 19.6793 31.4346 20.5291 31.4346 21.5738V24.1449C31.4346 24.5186 31.7375 24.8216 32.1112 24.8216H34.547C34.9207 24.8216 35.2236 24.5186 35.2236 24.1449V21.5738C35.2237 20.5291 34.3739 19.6793 33.3291 19.6793ZM33.8704 23.4683H32.7879V21.5737C32.7879 21.2753 33.0307 21.0325 33.3292 21.0325C33.6276 21.0325 33.8705 21.2753 33.8705 21.5737V23.4683H33.8704Z" fill="white"/>
<path d="M27.9976 19.6793C26.953 19.6793 26.103 20.5291 26.103 21.5738V24.1449C26.103 24.5186 26.406 24.8216 26.7797 24.8216H29.2154C29.5891 24.8216 29.8921 24.5186 29.8921 24.1449V21.5738C29.8922 20.5291 29.0423 19.6793 27.9976 19.6793ZM28.5389 23.4683H27.4564V21.5737C27.4564 21.2753 27.6992 21.0325 27.9977 21.0325C28.2962 21.0325 28.539 21.2753 28.539 21.5737V23.4683H28.5389Z" fill="white"/>
<path d="M6.67098 13.1162C5.62637 13.1162 4.77637 13.966 4.77637 15.0108V17.582C4.77637 17.9556 5.07934 18.2586 5.45301 18.2586H7.88879C8.26246 18.2586 8.56543 17.9556 8.56543 17.582V15.0108C8.56543 13.9662 7.71558 13.1162 6.67098 13.1162ZM7.2123 16.9053H6.12973V15.0108C6.12973 14.7124 6.37254 14.4695 6.67105 14.4695C6.96957 14.4695 7.2123 14.7123 7.2123 15.0108V16.9053Z" fill="white"/>
<path d="M17.334 13.1162C16.2893 13.1162 15.4395 13.966 15.4395 15.0108V17.582C15.4395 17.9556 15.7424 18.2586 16.1161 18.2586H18.5519C18.9255 18.2586 19.2285 17.9556 19.2285 17.582V15.0108C19.2286 13.9662 18.3787 13.1162 17.334 13.1162ZM17.8754 16.9053H16.7929V15.0108C16.7929 14.7124 17.0357 14.4695 17.3341 14.4695C17.6326 14.4695 17.8755 14.7123 17.8755 15.0108V16.9053H17.8754Z" fill="white"/>
<path d="M12.0024 13.1162C10.9577 13.1162 10.1079 13.966 10.1079 15.0108V17.582C10.1079 17.9556 10.4109 18.2586 10.7846 18.2586H13.2203C13.594 18.2586 13.897 17.9556 13.897 17.582V15.0108C13.897 13.9662 13.0471 13.1162 12.0024 13.1162ZM12.5438 16.9053H11.4613V15.0108C11.4613 14.7124 11.7041 14.4695 12.0025 14.4695C12.301 14.4695 12.5438 14.7123 12.5438 15.0108V16.9053H12.5438Z" fill="white"/>
<path d="M22.6659 13.1162C21.6212 13.1162 20.7712 13.966 20.7712 15.0108V17.582C20.7712 17.9556 21.0742 18.2586 21.4479 18.2586H23.8837C24.2573 18.2586 24.5603 17.9556 24.5603 17.582V15.0108C24.5604 13.9662 23.7105 13.1162 22.6659 13.1162ZM23.2072 16.9053H22.1247V15.0108C22.1247 14.7124 22.3675 14.4695 22.666 14.4695C22.9645 14.4695 23.2073 14.7123 23.2073 15.0108V16.9053H23.2072Z" fill="white"/>
<path d="M33.3291 13.1162C32.2844 13.1162 31.4346 13.966 31.4346 15.0108V17.582C31.4346 17.9556 31.7375 18.2586 32.1112 18.2586H34.547C34.9207 18.2586 35.2236 17.9556 35.2236 17.582V15.0108C35.2237 13.9662 34.3739 13.1162 33.3291 13.1162ZM33.8704 16.9053H32.7879V15.0108C32.7879 14.7124 33.0307 14.4695 33.3292 14.4695C33.6276 14.4695 33.8705 14.7123 33.8705 15.0108V16.9053H33.8704Z" fill="white"/>
<path d="M27.9974 13.1162C26.9528 13.1162 26.1028 13.966 26.1028 15.0108V17.582C26.1028 17.9556 26.4058 18.2586 26.7794 18.2586H29.2152C29.5889 18.2586 29.8918 17.9556 29.8918 17.582V15.0108C29.8919 13.9662 29.0421 13.1162 27.9974 13.1162ZM28.5387 16.9053H27.4562V15.0108C27.4562 14.7124 27.699 14.4695 27.9975 14.4695C28.2961 14.4695 28.5388 14.7123 28.5388 15.0108V16.9053H28.5387Z" fill="white"/>
<path d="M39.0036 9.11445H35.9688V0.676641C35.9688 0.302969 35.6658 0 35.2922 0H29.8196C29.4459 0 29.1429 0.302969 29.1429 0.676641C29.1429 1.05031 29.4459 1.35328 29.8196 1.35328H34.6155V9.11453H5.3863V1.35328H27.5641C27.9378 1.35328 28.2408 1.05031 28.2408 0.676641C28.2408 0.302969 27.9378 0 27.5641 0H4.70966C4.33599 0 4.03302 0.302969 4.03302 0.676641V9.11445H0.998174C0.624502 9.11445 0.321533 9.41742 0.321533 9.79109V11.7179C0.321533 12.0916 0.624502 12.3945 0.998174 12.3945H1.47942V32.5888C1.47942 32.9625 1.78239 33.2655 2.15606 33.2655C2.52974 33.2655 2.83271 32.9625 2.83271 32.5888V12.3946H37.1692V16.7105C37.1692 17.0841 37.4722 17.3871 37.8458 17.3871C38.2195 17.3871 38.5225 17.0841 38.5225 16.7105V12.3946H39.0037C39.3774 12.3946 39.6804 12.0916 39.6804 11.718V9.79117C39.6803 9.41742 39.3773 9.11445 39.0036 9.11445ZM38.327 11.0414H1.67481V10.4679H38.327V11.0414Z" fill="white"/>
</svg>
