<svg width="40" height="40" viewBox="0 0 40 40" fill="none" xmlns="http://www.w3.org/2000/svg">
<g clip-path="url(#clip0_625_1206)">
<path d="M8.8324 13.8055H12.6749L17.0267 13.8052C18.7897 13.8052 20.2237 12.3712 20.2237 10.6082C20.2237 9.75433 19.8914 8.95142 19.2874 8.34778C18.6838 7.74384 17.8809 7.41119 17.027 7.41119C16.5832 7.41119 16.1468 7.50427 15.7452 7.67975C15.032 6.72455 13.9008 6.14105 12.6749 6.14105C11.2411 6.14105 9.9411 6.95068 9.28741 8.18359C9.13818 8.15949 8.9862 8.14728 8.8324 8.14728C7.27234 8.14728 6.00342 9.4165 6.00342 10.9763C6.00342 11.7319 6.29761 12.4426 6.83197 12.9767C7.36603 13.511 8.07648 13.8055 8.8324 13.8055ZM8.8324 9.70978C9.02923 9.70978 9.21783 9.75372 9.39331 9.8407C9.60144 9.94385 9.84466 9.94904 10.0568 9.85504C10.2692 9.76074 10.4285 9.57703 10.4919 9.35364C10.7669 8.38196 11.6647 7.70355 12.6752 7.70355C13.5794 7.70355 14.3967 8.24005 14.7574 9.06982C14.8556 9.29596 15.0549 9.46259 15.2951 9.51904C15.535 9.5755 15.7877 9.51508 15.9766 9.35669C16.2701 9.1098 16.6431 8.974 17.027 8.974C17.4634 8.974 17.8738 9.14398 18.1827 9.45251C18.4915 9.76135 18.6612 10.1718 18.6612 10.6085C18.6612 11.5097 17.9282 12.243 17.0267 12.243H8.8324C8.49396 12.243 8.17596 12.1112 7.93671 11.8719C7.69745 11.633 7.56592 11.3147 7.56592 10.9766C7.56592 10.278 8.13415 9.70978 8.8324 9.70978Z" fill="white"/>
<path d="M39.4447 39.5418C39.4572 39.5146 39.4676 39.4866 39.4768 39.4579C39.4792 39.4499 39.4813 39.4417 39.4838 39.4338C39.4899 39.4124 39.4951 39.391 39.4993 39.3691C39.5009 39.3605 39.5027 39.352 39.5042 39.3431C39.5082 39.3175 39.5112 39.2916 39.5128 39.2653C39.5131 39.262 39.5137 39.2586 39.5137 39.2549C39.5152 39.2244 39.5146 39.1936 39.5125 39.1628C39.5122 39.1579 39.5112 39.153 39.5109 39.1478C39.5088 39.1228 39.5051 39.0981 39.5006 39.0731C39.499 39.0648 39.4972 39.0569 39.4954 39.0489C39.4905 39.0264 39.4844 39.0041 39.4774 38.9821C39.4746 38.9742 39.4725 38.9662 39.4697 38.9586C39.4597 38.9299 39.4481 38.9012 39.4343 38.8732L35.0563 29.9862C34.8656 29.5989 34.3971 29.4399 34.0102 29.6303C33.6232 29.8211 33.4639 30.2895 33.6546 30.6765L33.6916 30.7518C33.6919 30.7522 33.6919 30.7522 33.6919 30.7522L37.4776 38.4371H20.4131L19.0389 35.6475L12.4941 22.3623L12.0144 21.3888C17.6015 22.4428 23.4249 22.3775 28.9821 21.1919L29.5024 22.2481L31.046 25.3814C31.2364 25.7683 31.7049 25.9276 32.0921 25.7369C32.4791 25.5462 32.6381 25.0777 32.4477 24.6908L32.4074 24.609C32.4074 24.6087 32.4071 24.6084 32.4071 24.6084L30.6007 20.942L30.2834 20.2978L31.5199 17.7975C31.7113 17.4105 31.5529 16.9421 31.1659 16.7507C30.7793 16.5594 30.3108 16.7181 30.1195 17.1047L29.4136 18.532L28.7111 17.1059C28.5204 16.719 28.0519 16.5597 27.665 16.7501C27.278 16.9408 27.1187 17.4093 27.3094 17.7963L28.2686 19.7436C22.8462 20.8453 17.1736 20.8453 11.7507 19.7442L12.7138 17.7972C12.9052 17.4105 12.7465 16.9418 12.3598 16.7507C11.9729 16.5594 11.5044 16.7178 11.3131 17.1044L10.6072 18.532L9.90438 17.1056C9.71395 16.7187 9.24551 16.5594 8.85824 16.7501C8.47128 16.9408 8.31198 17.4093 8.50271 17.7963L9.7344 20.2962L5.46347 28.9321H4.37125C4.14176 28.9321 3.92386 29.0331 3.77555 29.208C3.62693 29.3831 3.56315 29.6148 3.60068 29.8412L3.9556 31.9805L0.547713 38.8722C0.294723 39.3834 0.68199 39.9999 1.24962 39.9999H19.9266H19.9275H19.9303H38.7321H38.7343C38.766 39.9999 38.7977 39.9974 38.8298 39.9938C38.8374 39.9928 38.8447 39.991 38.8524 39.9898C38.8756 39.9861 38.8988 39.9822 38.922 39.9764C38.9329 39.9736 38.9436 39.97 38.9546 39.9669C38.9735 39.9611 38.9921 39.9553 39.0108 39.9483C39.0236 39.9434 39.0358 39.9379 39.0483 39.9324C39.0584 39.9278 39.0687 39.9245 39.0788 39.9193C39.0858 39.9159 39.0922 39.9117 39.0993 39.908C39.1084 39.9031 39.1173 39.8982 39.1264 39.8931C39.1453 39.8818 39.164 39.8702 39.1817 39.8577C39.1881 39.8531 39.1948 39.8485 39.2015 39.8439C39.2512 39.8067 39.2955 39.7643 39.3342 39.7179C39.3382 39.7127 39.3422 39.7075 39.3461 39.7026C39.3614 39.6831 39.3757 39.663 39.3892 39.6422C39.3916 39.6382 39.3947 39.6352 39.3971 39.6312C39.3986 39.6285 39.3999 39.6254 39.4017 39.6227C39.4163 39.5983 39.4301 39.5732 39.442 39.5476C39.4426 39.5455 39.4438 39.5436 39.4447 39.5418ZM11.4208 38.4371V33.0538L14.0847 38.4371H11.4208ZM5.29288 30.4946H9.38284L6.32224 36.6963L5.29288 30.4946ZM2.50572 38.4374L3.07029 37.296L4.39353 34.6199L5.02707 38.4374H2.50572ZM9.8583 33.062V38.4374H7.20541L9.8583 33.062ZM15.8278 38.4374L11.3399 29.3667C11.2102 29.1045 10.9328 28.9318 10.6402 28.9318H7.20663L10.6041 22.062L11.7989 24.4875L18.6708 38.4374H15.8278Z" fill="white"/>
<path d="M27.32 7.49574C28.0124 7.94953 28.7921 8.16651 29.5639 8.16651C30.9027 8.16651 32.2165 7.51374 33.0039 6.31287C34.245 4.41987 33.7146 1.86982 31.8219 0.628975C31.3376 0.311592 30.8045 0.103462 30.2368 0.0103832C29.9329 -0.0396656 29.628 0.0940014 29.4583 0.351265C29.289 0.608223 29.2862 0.941169 29.4516 1.20087C29.99 2.04652 29.9829 3.13447 29.4339 3.97248C28.8846 4.81019 27.8897 5.25086 26.8994 5.094C26.5952 5.04639 26.2912 5.18098 26.1231 5.43916C25.9549 5.69733 25.954 6.02998 26.1209 6.28876C26.4322 6.77216 26.8357 7.17805 27.32 7.49574ZM30.7404 4.82911C31.2403 4.06647 31.4615 3.17567 31.4035 2.2989C32.2074 3.13447 32.3593 4.44611 31.6971 5.45625C31.0349 6.46638 29.7714 6.85029 28.6847 6.44624C29.5117 6.14991 30.2405 5.59174 30.7404 4.82911Z" fill="white"/>
<path d="M25.5112 13.8244C25.6369 14.1259 25.9436 14.3206 26.2704 14.3054C26.5927 14.2901 26.8756 14.0701 26.9754 13.7643C27.0761 13.4555 26.9662 13.1024 26.7078 12.9055C26.4438 12.7044 26.0751 12.6931 25.7986 12.8759C25.4904 13.0795 25.372 13.4845 25.5112 13.8244Z" fill="white"/>
<path d="M34.4105 11.0422C34.5356 11.3422 34.8438 11.5402 35.1698 11.5231C35.492 11.5063 35.7749 11.2888 35.8747 10.982C35.9751 10.6732 35.8659 10.3201 35.6071 10.1236C35.3428 9.92248 34.9747 9.91088 34.6979 10.094C34.3897 10.2975 34.271 10.7022 34.4105 11.0422Z" fill="white"/>
<path d="M17.6431 3.88609C17.77 4.19035 18.085 4.38994 18.4155 4.36705C18.7405 4.34446 19.0231 4.11833 19.1143 3.80552C19.2016 3.50493 19.096 3.16984 18.8504 2.97545C18.5867 2.76732 18.2104 2.75114 17.9306 2.93761C17.6245 3.14146 17.5018 3.54643 17.6431 3.88609Z" fill="white"/>
<path d="M3.84109 6.19994C3.96651 6.50115 4.27321 6.69677 4.59914 6.68121C4.91683 6.66564 5.19973 6.45355 5.30196 6.15203C5.40542 5.84777 5.30684 5.50079 5.05782 5.29723C4.79445 5.08178 4.41207 5.06316 4.12856 5.25146C3.82247 5.45501 3.69979 5.86089 3.84109 6.19994Z" fill="white"/>
<path d="M33.4633 27.0522C33.1838 26.8664 32.8075 26.8819 32.5442 27.0898C32.2811 27.2976 32.181 27.6641 32.2991 27.9769C32.4126 28.2775 32.708 28.4832 33.0297 28.4835C33.3462 28.4838 33.6394 28.283 33.756 27.9891C33.8891 27.6531 33.7676 27.2515 33.4633 27.0522Z" fill="white"/>
</g>
<defs>
<clipPath id="clip0_625_1206">
<rect width="40" height="40" fill="white"/>
</clipPath>
</defs>
</svg>
